<svg width="147" height="44" viewBox="0 0 147 44" fill="none" xmlns="http://www.w3.org/2000/svg">
<path d="M80.4247 21.3999C80.4247 13.9839 74.5567 8.2959 67.3207 8.2959C60.0847 8.2959 54.2167 13.9839 54.2167 21.3999C54.2167 28.8159 60.0847 34.5039 67.3207 34.5039C69.4447 34.5039 71.4607 33.9999 73.2247 33.1359L75.9247 35.9799L80.0647 32.3079L77.5447 29.6439C79.3447 27.4119 80.4247 24.5679 80.4247 21.3999ZM67.3207 28.8879C63.2167 28.8879 59.9767 25.8999 59.9767 21.3999C59.9767 16.8999 63.2167 13.9119 67.3207 13.9119C71.4247 13.9119 74.6647 16.8999 74.6647 21.3999C74.6647 22.9479 74.2687 24.3159 73.6207 25.4679L69.5887 21.1839L65.4487 24.8559L69.0847 28.7079C68.5087 28.8159 67.9327 28.8879 67.3207 28.8879Z" fill="white"/>
<path d="M89.2076 27.1599H101.988C102.132 26.4759 102.204 25.7559 102.204 24.9999C102.204 19.5639 98.3156 15.4959 93.0596 15.4959C87.3716 15.4959 83.4836 19.6359 83.4836 24.9999C83.4836 30.3639 87.2996 34.5039 93.4556 34.5039C96.8756 34.5039 99.5396 33.2439 101.304 30.7959L96.9836 28.3119C96.2636 29.1039 95.0036 29.6799 93.5276 29.6799C91.5476 29.6799 89.8916 29.0319 89.2076 27.1599ZM89.0996 23.1279C89.6036 21.2919 90.9716 20.2839 93.0236 20.2839C94.6436 20.2839 96.2636 21.0399 96.8396 23.1279H89.0996Z" fill="white"/>
<path d="M110.635 27.1599H123.415C123.559 26.4759 123.631 25.7559 123.631 24.9999C123.631 19.5639 119.743 15.4959 114.487 15.4959C108.799 15.4959 104.911 19.6359 104.911 24.9999C104.911 30.3639 108.727 34.5039 114.883 34.5039C118.303 34.5039 120.967 33.2439 122.731 30.7959L118.411 28.3119C117.691 29.1039 116.431 29.6799 114.955 29.6799C112.975 29.6799 111.319 29.0319 110.635 27.1599ZM110.527 23.1279C111.031 21.2919 112.399 20.2839 114.451 20.2839C116.071 20.2839 117.691 21.0399 118.267 23.1279H110.527Z" fill="white"/>
<path d="M138.177 15.4959C135.765 15.4959 134.001 16.3239 132.813 17.6919V8.7999H127.413V33.9999H132.813V32.3079C134.001 33.6759 135.765 34.5039 138.177 34.5039C142.893 34.5039 146.781 30.3639 146.781 24.9999C146.781 19.6359 142.893 15.4959 138.177 15.4959ZM137.097 29.3919C134.613 29.3919 132.813 27.6999 132.813 24.9999C132.813 22.2999 134.613 20.6079 137.097 20.6079C139.581 20.6079 141.381 22.2999 141.381 24.9999C141.381 27.6999 139.581 29.3919 137.097 29.3919Z" fill="white"/>
<path d="M25.8916 1.00269L37.9197 21.836H13.8635L25.8916 1.00269Z" fill="white"/>
<path d="M12.8915 23.0027L24.9197 43.836H0.863403L12.8915 23.0027Z" fill="white"/>
<path d="M37.9052 22.962L25.7577 43.7259L13.8493 22.8239L37.9052 22.962Z" fill="white"/>
<path d="M12.8915 21.779L0.861429 0.946795L24.9177 0.944498L12.8915 21.779Z" fill="#FFDF52"/>
</svg>
