<svg width="90" height="104" viewBox="0 0 90 104" fill="none" xmlns="http://www.w3.org/2000/svg">
<path d="M52.8831 91.4502C41.0132 87.5099 30.3182 80.4707 25.2116 68.1246C20.6025 56.9808 23.4523 45.4524 36.9999 44.776C43.4131 44.4557 51.0491 48.4957 52.3357 55.3712C53.7691 63.031 45.9381 65.4913 41.3644 63.456C30.6819 58.7025 39.0109 40.7594 43.5855 28.0774C49.0029 13.0589 38.6758 0.549587 38.5968 0.623994" stroke="white" stroke-miterlimit="1.5" stroke-linecap="round" stroke-linejoin="round"/>
<path d="M40.2992 98.4658C41.169 97.3023 42.3948 96.6184 43.5865 95.8725C47.4993 93.423 52.4216 92.0451 56.8807 93.0032C52.6695 90.4429 48.0969 85.6173 48.1882 80.2194" stroke="white" stroke-miterlimit="1.5" stroke-linecap="round" stroke-linejoin="round"/>
</svg>
