<svg width="139" height="98" viewBox="0 0 139 98" fill="none" xmlns="http://www.w3.org/2000/svg">
<path fill-rule="evenodd" clip-rule="evenodd" d="M119.639 81.9222C119.914 81.9375 120.15 81.7263 120.165 81.4506C121.202 62.6707 117.259 43.7386 102.724 29.7053C96.1696 23.3775 88.3939 19.564 81.1389 19.7216C73.838 19.8803 67.1803 24.0576 62.9222 33.4525C62.8234 33.6707 62.7278 33.8913 62.6355 34.1142C56.4431 33.5017 49.7836 33.3976 43.5675 33.3004C41.1301 33.2624 38.7609 33.2253 36.5147 33.1591C24.7219 32.8116 15.9196 27.3943 10.0717 22.0371C7.14805 19.3587 4.96823 16.6998 3.52983 14.7084C2.81073 13.7129 2.2782 12.8859 1.93168 12.309C1.75814 12.02 1.63279 11.7964 1.5546 11.6475C1.52172 11.5849 1.49939 11.5397 1.48586 11.5105C1.47805 11.4786 1.46697 11.4469 1.45244 11.4161C1.33492 11.1662 1.03708 11.0589 0.787191 11.1764C0.591069 11.2686 0.529195 11.4421 0.511634 11.5181C0.493792 11.5953 0.498669 11.6583 0.501085 11.683C0.506448 11.7378 0.51976 11.7812 0.52447 11.7963C0.536548 11.835 0.552111 11.8719 0.563615 11.898C0.588911 11.9553 0.62514 12.0284 0.669211 12.1123C0.758669 12.2827 0.894055 12.5236 1.07444 12.8239C1.43577 13.4254 1.98389 14.276 2.71918 15.294C4.18956 17.3296 6.41351 20.042 9.39624 22.7744C15.3612 28.2389 24.3824 33.802 36.4853 34.1587C38.7646 34.2259 41.1569 34.2634 43.6095 34.3018C49.7253 34.3977 56.2155 34.4994 62.2609 35.0817C60.764 39.2258 60.3661 44.0408 61.2389 48.5405C62.2295 53.6472 64.8669 58.3896 69.4456 61.2643C71.9924 62.8633 74.4317 63.4648 76.6604 63.3165C78.8871 63.1682 80.866 62.2739 82.4985 60.9429C85.7473 58.2941 87.6676 53.8814 87.4995 49.9785C87.304 45.4381 85.2268 42.1318 81.9219 39.7458C78.6401 37.3765 74.1574 35.9189 69.1241 35.0013C67.3733 34.6822 65.5484 34.4273 63.6753 34.2224C63.7268 34.1026 63.7794 33.9836 63.833 33.8653C67.9594 24.761 74.3058 20.8704 81.1606 20.7214C88.0611 20.5714 95.5927 24.2105 102.029 30.4247C116.278 44.1819 120.194 62.7783 119.167 81.3954C119.152 81.6712 119.363 81.907 119.639 81.9222ZM63.288 35.1858C65.2348 35.3933 67.1298 35.6543 68.9447 35.9851C73.9199 36.8921 78.2318 38.3151 81.3365 40.5566C84.4182 42.7814 86.3194 45.8162 86.5004 50.0215C86.6549 53.6075 84.872 57.7175 81.8666 60.1679C80.3718 61.3866 78.5857 62.1861 76.594 62.3187C74.6042 62.4511 72.3716 61.9206 69.9773 60.4173C65.6857 57.7229 63.1717 53.2529 62.2206 48.3501C61.3647 43.9373 61.7831 39.2077 63.288 35.1858ZM1.21276 12.0813C1.28854 12.0457 1.3441 11.9979 1.38471 11.9484C1.33929 12.0031 1.28141 12.049 1.21276 12.0813Z" fill="white"/>
<path fill-rule="evenodd" clip-rule="evenodd" d="M119.635 88.3445C119.879 88.3437 120.087 88.1669 120.127 87.9261C121.214 81.3534 125.739 75.3578 131.23 71.3051L131.23 71.3051C131.411 71.1717 131.589 71.0385 131.767 70.9062C133.284 69.775 134.704 68.7161 136.483 68.2308C136.749 68.1581 136.906 67.8832 136.834 67.6168C136.761 67.3504 136.486 67.1934 136.22 67.266C134.246 67.8045 132.669 68.9828 131.172 70.1016C130.992 70.2359 130.814 70.3693 130.636 70.5006C125.631 74.1948 121.345 79.5051 119.651 85.4862C118.9 82.4288 117.664 79.2152 115.912 76.3552C113.72 72.7756 110.698 69.7159 106.777 68.2457C106.518 68.1487 106.23 68.2797 106.133 68.5383C106.036 68.7969 106.167 69.0851 106.426 69.182C110.074 70.5498 112.942 73.4193 115.06 76.8775C117.177 80.3343 118.523 84.3457 119.141 87.9294C119.182 88.1699 119.391 88.3453 119.635 88.3445Z" fill="white"/>
</svg>
